<svg xmlns="http://www.w3.org/2000/svg" width="480pt" height="290pt" viewBox="0 0 480 290" version="1.1" xlink="http://www.w3.org/1999/xlink">
  <g id="surface2" transform="matrix(1,0,0,1,0,0)">
    <path style="stroke:none;fill-rule:evenodd;fill:rgb(55.294118%,77.647059%,24.705882%);fill-opacity:1" d="M 255.25 142.050781 L 224.75 142.050781 C 223.917969 142.082031 223.234375 142.367188 222.699219 142.898438 C 222.167969 143.433594 221.898438 144.101562 221.898438 144.898438 C 221.898438 145.699219 222.167969 146.367188 222.699219 146.898438 C 223.234375 147.464844 223.917969 147.75 224.75 147.75 L 255.25 147.75 C 256.050781 147.75 256.714844 147.464844 257.25 146.898438 C 257.785156 146.367188 258.066406 145.699219 258.101562 144.898438 C 258.066406 144.101562 257.785156 143.433594 257.25 142.898438 C 256.714844 142.367188 256.050781 142.082031 255.25 142.050781 M 240 163.851562 C 242.433594 163.816406 244.683594 163.285156 246.75 162.25 C 248.816406 161.214844 250.566406 159.800781 252 158 L 227.949219 158 C 229.382812 159.800781 231.132812 161.214844 233.199219 162.25 C 235.265625 163.285156 237.535156 163.816406 240 163.851562 M 255.25 150.050781 L 224.75 150.050781 C 223.917969 150.050781 223.234375 150.316406 222.699219 150.851562 C 222.167969 151.382812 221.898438 152.066406 221.898438 152.898438 C 221.898438 153.699219 222.167969 154.367188 222.699219 154.898438 C 223.234375 155.433594 223.917969 155.714844 224.75 155.75 L 255.25 155.75 C 256.050781 155.714844 256.714844 155.433594 257.25 154.898438 C 257.785156 154.367188 258.066406 153.699219 258.101562 152.898438 C 258.066406 152.101562 257.785156 151.417969 257.25 150.851562 C 256.714844 150.316406 256.050781 150.050781 255.25 150.050781 M 244.101562 79.550781 C 237.367188 82.984375 232.234375 86.75 228.699219 90.851562 C 225.167969 94.949219 222.917969 99.117188 221.949219 103.351562 C 220.984375 107.582031 221 111.632812 222 115.5 C 223 119.332031 224.648438 122.714844 226.949219 125.648438 C 229.285156 128.582031 231.933594 130.785156 234.898438 132.25 C 233.167969 130.351562 231.582031 128.035156 230.148438 125.300781 C 228.683594 122.535156 227.648438 119.464844 227.050781 116.101562 C 226.449219 112.734375 226.535156 109.183594 227.300781 105.449219 C 228.035156 101.714844 229.75 97.933594 232.449219 94.101562 C 235.117188 90.234375 239.015625 86.449219 244.148438 82.75 C 248.117188 88.648438 250.867188 94.199219 252.398438 99.398438 C 253.898438 104.601562 254.535156 109.382812 254.300781 113.75 C 254.101562 118.082031 253.332031 121.964844 252 125.398438 C 250.699219 128.800781 249.183594 131.683594 247.449219 134.050781 L 240.898438 134.050781 C 243.265625 129.816406 244.867188 125.714844 245.699219 121.75 C 246.5 117.785156 246.566406 113.816406 245.898438 109.851562 C 245.199219 105.882812 243.785156 101.734375 241.648438 97.398438 C 242.816406 101.667969 243.417969 105.632812 243.449219 109.300781 C 243.484375 112.964844 243.132812 116.332031 242.398438 119.398438 C 241.667969 122.464844 240.714844 125.234375 239.550781 127.699219 C 238.382812 130.132812 237.183594 132.25 235.949219 134.050781 L 224.75 134.050781 C 223.917969 134.082031 223.234375 134.367188 222.699219 134.898438 C 222.167969 135.433594 221.898438 136.101562 221.898438 136.898438 C 221.898438 137.734375 222.167969 138.417969 222.699219 138.949219 C 223.234375 139.484375 223.917969 139.75 224.75 139.75 L 255.25 139.75 C 256.050781 139.75 256.714844 139.484375 257.25 138.949219 C 257.785156 138.417969 258.066406 137.734375 258.101562 136.898438 C 258.066406 136.101562 257.785156 135.433594 257.25 134.898438 C 256.714844 134.367188 256.050781 134.082031 255.25 134.050781 L 248.75 134.050781 C 252.648438 130.082031 255.351562 125.949219 256.851562 121.648438 C 258.351562 117.316406 258.949219 113.035156 258.648438 108.800781 C 258.316406 104.566406 257.398438 100.550781 255.898438 96.75 C 254.367188 92.949219 252.550781 89.566406 250.449219 86.601562 C 248.316406 83.632812 246.199219 81.285156 244.101562 79.550781 M 286.351562 97.398438 C 286.316406 103.101562 285.351562 108.464844 283.449219 113.5 C 281.582031 118.566406 278.933594 123.132812 275.5 127.199219 C 272.101562 131.234375 268.101562 134.617188 263.5 137.351562 C 262.964844 137.617188 262.464844 137.617188 262 137.351562 C 261.535156 137.117188 261.285156 136.699219 261.25 136.101562 C 261.25 135.332031 261.433594 134.617188 261.800781 133.949219 C 262.132812 133.285156 262.617188 132.714844 263.25 132.25 C 268.148438 128.617188 272.035156 124.082031 274.898438 118.648438 C 277.734375 113.183594 279.183594 107.183594 279.25 100.648438 C 279.214844 95.183594 278.183594 90.082031 276.148438 85.351562 C 274.148438 80.617188 271.351562 76.449219 267.75 72.851562 C 264.148438 69.285156 259.984375 66.484375 255.25 64.449219 C 250.515625 62.417969 245.433594 61.382812 240 61.351562 C 234.535156 61.382812 229.433594 62.417969 224.699219 64.449219 C 219.964844 66.484375 215.800781 69.285156 212.199219 72.851562 C 208.632812 76.449219 205.832031 80.617188 203.800781 85.351562 C 201.765625 90.082031 200.734375 95.183594 200.699219 100.648438 C 200.765625 107.183594 202.214844 113.183594 205.050781 118.648438 C 207.917969 124.082031 211.800781 128.617188 216.699219 132.25 C 217.332031 132.714844 217.816406 133.285156 218.148438 133.949219 C 218.515625 134.617188 218.699219 135.332031 218.699219 136.101562 C 218.667969 136.699219 218.417969 137.117188 217.949219 137.351562 C 217.484375 137.617188 216.984375 137.617188 216.449219 137.351562 C 211.851562 134.617188 207.851562 131.234375 204.449219 127.199219 C 201.050781 123.132812 198.398438 118.566406 196.5 113.5 C 194.601562 108.464844 193.632812 103.101562 193.601562 97.398438 C 193.632812 90.933594 194.851562 84.917969 197.25 79.351562 C 199.648438 73.75 202.964844 68.832031 207.199219 64.601562 C 211.433594 60.367188 216.351562 57.050781 221.949219 54.648438 C 227.515625 52.25 233.535156 51.035156 240 51 C 246.433594 51.035156 252.449219 52.25 258.050781 54.648438 C 263.617188 57.050781 268.535156 60.367188 272.800781 64.601562 C 277.035156 68.832031 280.332031 73.75 282.699219 79.351562 C 285.101562 84.917969 286.316406 90.933594 286.351562 97.398438 "></path>
  </g>
  <g id="surface4">
    <text style="fill:rgb(65,64,66)" font-family="Helvetica" font-size="50" transform="matrix(1,0,0,1,210.25,221.15)" xml:space="preserve">Ed</text>
    <text style="fill:rgb(141,198,63)" font-family="Futura Md BT" font-size="35" transform="matrix(1,0,0,1,93.25,268.7)" xml:space="preserve">Energy Dashboard</text>
  </g>
</svg>
